<svg width="1366" height="768" viewBox="0 0 1366 768" fill="none" xmlns="http://www.w3.org/2000/svg">
<g clip-path="url(#clip0_1395_123507)">
<path d="M-30 1060.71V411.179C326.5 316.179 440.5 774.207 852 532.207C1181.2 338.607 1397.5 429.207 1464.5 498.707V1060.71H-30Z" fill="white" fill-opacity="0.15" stroke="url(#paint0_linear_1395_123507)" stroke-opacity="0.4" stroke-width="3"/>
<path d="M-125 1066.76V504.755C53.5 613.255 334 418.255 529 415.755C724 413.255 846 471.255 1069 574.255C1247.4 656.655 1384.33 608.589 1430.5 574.255V1080.76L-125 1066.76Z" fill="white" fill-opacity="0.2" stroke="url(#paint1_linear_1395_123507)" stroke-opacity="0.4" stroke-width="3"/>
<path d="M-81 1256.47V701C277 467 360.5 747.652 683 540.47C1005.5 333.288 1317.67 573.97 1472.5 625.47L1491 1256.47H-81Z" fill="white" fill-opacity="0.2" stroke="url(#paint2_linear_1395_123507)" stroke-opacity="0.4" stroke-width="3"/>
</g>
<defs>
<linearGradient id="paint0_linear_1395_123507" x1="-104.5" y1="895.178" x2="1290" y2="138.178" gradientUnits="userSpaceOnUse">
<stop offset="0.0573591" stop-color="white"/>
<stop offset="1" stop-color="white" stop-opacity="0"/>
</linearGradient>
<linearGradient id="paint1_linear_1395_123507" x1="-169" y1="1139.18" x2="1271.05" y2="193.651" gradientUnits="userSpaceOnUse">
<stop offset="0.0573591" stop-color="white"/>
<stop offset="1" stop-color="white" stop-opacity="0"/>
</linearGradient>
<linearGradient id="paint2_linear_1395_123507" x1="-125.467" y1="1327.08" x2="1878.34" y2="884.707" gradientUnits="userSpaceOnUse">
<stop offset="0.0573591" stop-color="white"/>
<stop offset="1" stop-color="white" stop-opacity="0"/>
</linearGradient>
<clipPath id="clip0_1395_123507">
<rect width="1366" height="768" fill="white"/>
</clipPath>
</defs>
</svg>
