<?xml version="1.0" encoding="UTF-8"?>
<!DOCTYPE svg PUBLIC "-//W3C//DTD SVG 1.1//EN" "http://www.w3.org/Graphics/SVG/1.1/DTD/svg11.dtd">
<!-- Creator: CorelDRAW 2021 (64-Bit) -->
<svg xmlns="http://www.w3.org/2000/svg" xml:space="preserve" width="86.0773mm" height="45.9219mm" version="1.1" style="shape-rendering:geometricPrecision; text-rendering:geometricPrecision; image-rendering:optimizeQuality; fill-rule:evenodd; clip-rule:evenodd"
viewBox="0 0 8607.72 4592.18"
 xmlns:xlink="http://www.w3.org/1999/xlink"
 xmlns:xodm="http://www.corel.com/coreldraw/odm/2003">
 <defs>
  <style type="text/css">
   <![CDATA[
    .str0 {stroke:black;stroke-width:141.11;stroke-linecap:round;stroke-linejoin:round;stroke-miterlimit:22.9256}
    .str1 {stroke:black;stroke-width:19.99;stroke-linecap:round;stroke-linejoin:round;stroke-miterlimit:22.9256}
    .fil0 {fill:none}
    .fil1 {fill:black}
    .fil2 {fill:black;fill-rule:nonzero}
   ]]>
  </style>
 </defs>
 <g id="Layer_x0020_1">
  <metadata id="CorelCorpID_0Corel-Layer"/>
  <path class="fil0 str0" d="M516.82 70.56l7574.07 0c246.43,0 446.27,265.4 446.27,592.68l-0.01 3265.71c0.01,327.27 -199.83,592.68 -446.26,592.68l-7574.07 0.01c-246.42,-0.01 -446.26,-265.42 -446.26,-592.7l0 -3265.69c0,-327.28 199.84,-592.68 446.27,-592.68l-0.01 -0.01z"/>
  <path class="fil1 str1" d="M1437.86 2466.73l0 0c16.06,318.97 234.6,491.8 642.38,517.92l924.24 -4.33 -9.82 -2107.37 909.69 -0.35 23.74 2857.64 -2301.94 10.74c-720.39,3.35 -1083.62,-274.3 -1090.38,-832.25l-7.35 -2022.36 902.06 -6.13 7.4 1586.51 -0.06 -0.01 0.04 -0.01z"/>
  <path class="fil2 str1" d="M5788.4 1542.37c-52.48,0.23 -107.59,6.36 -162.59,17.8 -55.01,11.44 -104.23,27.8 -147.12,48.37 -42.82,20.63 -78.69,45.94 -107.07,75.46 -28.37,29.53 -42.64,62.92 -42.48,98.98l4.51 963.77c0.17,33.74 14.73,65.35 43.4,93.49 28.65,28.08 65.87,52.07 110.82,71.01 44.96,18.95 94.43,33.74 147.52,43.57 53.1,9.82 106.5,14.85 159.71,14.56l1275.13 -5.95 -337.46 754.66 -2324.82 10.86c-3.29,-702.88 -6.59,-1405.77 -9.82,-2108.58 -0.81,-172.59 44.6,-309.09 136.2,-409.4 91.59,-100.37 218.13,-176.47 379.52,-228.3 161.39,-51.89 353.75,-85.23 576.57,-99.78 222.81,-14.5 467.47,-22.59 733.44,-23.86l1684.16 -7.86 3.18 681.28 -2122.8 9.88 -0.03 0.05 0.03 -0.01z"/>
  <path class="fil2 str1" d="M7258.25 3731.79l821.11 -3.81 -1.33 -284.24c-0.92,-195.02 4.74,-311.41 -14.27,-471.33 -19.01,-159.89 -63.16,-296.94 -132.04,-410.84 -68.87,-113.82 -170.68,-201.2 -304.75,-261.4 -134,-60.14 -315.62,-89.96 -543.57,-88.86l-1206.17 5.62 450.14 614.81 520.07 -2.44c131.47,-0.64 402.34,152.49 408.7,454.82l2.08 447.77 0.04 -0.08 -0.01 -0.02z"/>
 </g>
</svg>
